<svg width="80" height="80" viewBox="0 0 80 80" fill="none" xmlns="http://www.w3.org/2000/svg">
<path d="M5.5292 0.218935C4.00667 0.593243 3.15191 1.10123 1.94991 2.41131C0.400657 4.06896 0.133545 5.08494 0.133545 9.09538C0.133545 12.5444 0.133545 12.5444 0.881458 13.186C1.38897 13.6138 1.94991 13.8277 2.61769 13.8277C4.5676 13.801 5.07511 12.8117 5.07511 8.98843C5.07511 6.50196 5.12854 6.26133 5.74289 5.67313C6.35725 5.03146 6.57094 5.00473 9.32219 5.00473C12.207 5.00473 12.3138 4.97799 13.1419 4.22938C14.2638 3.24013 14.2905 1.82311 13.2487 0.753661C12.581 0.0852537 12.394 0.0585174 9.53588 0.00504487C7.9065 -0.0216914 6.09014 0.0585174 5.5292 0.218935Z" fill="white"/>
<path d="M67.9533 0.0852537C66.9917 0.299144 66.1903 1.39533 66.1636 2.46478C66.1369 3.26687 66.2972 3.61444 66.9917 4.22938C67.8464 4.97799 67.9266 5.00473 70.8915 5.00473C73.8832 5.00473 73.9633 5.03146 74.4975 5.69987C74.9783 6.31481 75.0585 6.79606 75.0585 9.20232C75.0585 12.8652 75.5393 13.801 77.5159 13.8277C78.1837 13.8277 78.7446 13.6138 79.2521 13.186C80 12.5444 80 12.5444 80 9.09538C80 5.08494 79.7062 4.06896 78.157 2.38457C76.4742 0.53977 75.2454 0.11199 71.586 0.0317811C69.9032 0.00504487 68.2471 0.0317811 67.9533 0.0852537Z" fill="white"/>
<path d="M24.5743 3.42729C21.7696 4.28285 20.2204 8.13287 21.6093 10.8332C22.6778 12.8652 25.5626 14.9239 29.0885 16.1003C31.8397 17.0093 32.6411 16.9826 33.4958 15.9399C34.8581 14.3357 34.1102 12.5978 31.7062 11.7957C28.394 10.6996 25.3489 8.77454 26.1502 8.23982C26.6043 7.94572 27.6728 8.0794 30.985 8.93496C39.6394 11.1273 40.5209 11.1273 49.2821 8.88149C54.1436 7.65162 55.4257 7.86551 53.1018 9.54989C51.8464 10.4589 50.5108 11.1006 48.4007 11.7957C46.0234 12.5978 45.2755 14.3357 46.6377 15.9399C47.5192 16.9826 48.5075 17.0093 51.0451 16.1003C54.8648 14.7367 57.4825 12.8919 58.4975 10.86C59.5659 8.80128 59.0317 6.07418 57.2421 4.41653C55.6928 2.97277 52.7546 2.81235 48.374 3.98875C42.6845 5.48598 41.9633 5.61966 40.0668 5.61966C38.197 5.59293 37.1285 5.37904 31.6795 3.96201C29.1419 3.29361 25.8564 3.05298 24.5743 3.42729Z" fill="white"/>
<path d="M17.1753 11.261C15.1986 12.9187 14.1302 17.3302 15.0651 19.8166C15.8931 21.9823 18.1369 23.6934 21.3689 24.6024C23.2387 25.1372 26.818 25.5917 29.1953 25.5917C30.8514 25.5917 31.0918 25.5115 31.813 24.8163C32.641 23.9875 32.8013 23.025 32.2671 22.0358C31.7596 21.0465 31.1986 20.8326 28.848 20.6722C23.5592 20.2979 20.7813 19.5493 19.8998 18.2927C19.3389 17.4906 19.3923 17.0093 20.3005 15.2982C21.3689 13.293 21.3422 12.2235 20.2737 11.3145C19.2587 10.4322 18.1636 10.4322 17.1753 11.261Z" fill="white"/>
<path d="M59.8596 11.3145C58.7911 12.2235 58.7644 13.293 59.8329 15.2982C60.7411 17.0361 60.7945 17.4906 60.2336 18.2927C59.3254 19.576 56.681 20.2711 51.2853 20.6455C48.9347 20.8326 48.3738 21.0465 47.8663 22.0357C47.332 23.025 47.4923 23.9608 48.3738 24.8431L49.1751 25.6719L52.6209 25.4847C56.3337 25.2976 59.3521 24.6292 61.4088 23.5864C62.9581 22.8111 64.721 20.9128 65.1751 19.576C65.7093 17.9451 65.3888 15.2982 64.4272 13.3999C63.0382 10.6461 61.489 9.92421 59.8596 11.3145Z" fill="white"/>
<path d="M37.5559 14.2288C36.3005 14.6565 35.1252 15.7527 34.4307 17.1163C32.3205 21.1802 34.217 37.115 37.369 41.7671C37.7429 42.3553 38.5175 43.0505 39.0518 43.3178C39.9332 43.7456 40.1202 43.7456 40.9483 43.4248C43.7529 42.2484 45.7296 36.0188 46.4775 25.966C46.9049 19.9771 46.2905 17.0361 44.2337 15.218C42.6845 13.8545 39.7997 13.4267 37.5559 14.2288ZM40.7613 18.8541C41.4558 19.3087 41.6695 20.3514 41.6695 23.1587C41.6695 27.4097 40.6544 34.682 40.0668 34.682C39.2922 34.682 38.01 22.3833 38.571 20.1642C38.8648 18.9343 39.9332 18.2927 40.7613 18.8541Z" fill="white"/>
<path d="M1.73622 20.4851C1.44239 20.6188 0.961592 20.9931 0.667769 21.3139C0.133545 21.9021 0.133545 22.2764 0.133545 40.0293V58.1565L0.747902 58.8249C1.09515 59.1992 1.68279 59.5735 2.03004 59.6537C3.01835 59.9211 4.46076 59.119 4.78129 58.1565C5.18196 57.0068 5.18196 22.6507 4.78129 21.7684C4.48747 21.1 3.23204 20.2444 2.61769 20.2712C2.43071 20.2712 2.03004 20.3781 1.73622 20.4851Z" fill="white"/>
<path d="M76.4741 20.6722C75.9666 20.9128 75.5125 21.4208 75.3523 21.9021C74.9516 23.0517 74.9516 57.0068 75.3523 58.1565C75.6728 59.119 77.1152 59.9211 78.1035 59.6537C78.4508 59.5735 79.0384 59.1992 79.3856 58.8249L80 58.1565V40.0026V21.8486L79.3322 21.2069C78.4508 20.3246 77.5159 20.1642 76.4741 20.6722Z" fill="white"/>
<path d="M12.4206 21.5278C10.9782 21.8219 10.1501 23.5063 10.1501 26.1532C10.1501 27.9712 11.2987 30.4844 12.7144 31.7143C15.0116 33.7463 18.7244 34.8959 23.7729 35.1365C30.6109 35.4574 32.7211 34.8424 32.7211 32.5699C32.7211 31.7945 32.5341 31.3133 32.1067 30.8855C31.5191 30.2973 31.3054 30.2705 26.8981 30.2438C21.8496 30.2171 19.4991 29.8962 17.656 28.907C15.2787 27.6771 14.878 26.982 15.252 24.9768C15.3855 24.2816 15.3855 23.4528 15.252 23.1052C14.8246 21.9823 13.5959 21.2872 12.4206 21.5278Z" fill="white"/>
<path d="M66.6178 21.501C65.763 21.6614 64.8281 22.7844 64.8281 23.6399C64.8281 24.041 64.8816 24.95 64.935 25.6451C65.0418 27.0622 64.6679 27.6236 62.9584 28.7198C61.2488 29.7893 58.6311 30.217 53.369 30.2438C48.9617 30.2705 48.5877 30.2973 48.0802 30.832C47.7864 31.1261 47.4659 31.8212 47.359 32.3559C47.2255 33.1848 47.3323 33.4254 48.0001 34.0938C48.6946 34.8157 49.0151 34.9226 51.1787 35.083C54.5176 35.3771 59.3256 35.083 61.8098 34.4146C66.9383 33.1046 69.9834 30.0032 69.9834 26.1264C69.9834 22.8913 68.7013 21.1 66.6178 21.501Z" fill="white"/>
<path d="M9.56249 33.2115C8.52076 33.7997 8.1468 35.3237 8.54747 37.5963C9.18854 41.2591 11.5391 43.6654 15.7595 44.9755C18.9648 45.938 25.3488 45.7776 31.252 44.5744C33.4156 44.1467 33.8964 43.9328 34.5375 43.2376C35.3922 42.2751 35.4456 41.5532 34.7511 40.3769C34.0299 39.2272 33.1752 39.1202 30.0767 39.7619C24.5208 40.9383 18.1635 40.9116 15.8663 39.7084C14.0767 38.7994 13.3555 37.6765 13.3555 35.8584C13.3555 34.7622 13.2219 34.281 12.7678 33.7463C12.0199 32.8907 10.5508 32.6501 9.56249 33.2115Z" fill="white"/>
<path d="M68.2205 33.0778C67.2589 33.4521 66.7781 34.4146 66.7781 35.9119C66.7781 37.6765 66.0035 38.8261 64.2405 39.7352C62.9584 40.4036 62.7714 40.4303 57.8298 40.4303C53.5828 40.4036 52.3273 40.3234 50.0836 39.8154C46.9584 39.1202 46.1036 39.2272 45.3824 40.3768C44.6879 41.5532 44.7414 42.2751 45.6228 43.2643C46.2906 44.013 46.6913 44.1466 49.8165 44.7616C54.4108 45.6706 61.703 45.8043 64.2405 45.0289C67.3123 44.0664 69.4225 42.5692 70.6512 40.457C71.5327 38.9331 72.0135 36.0188 71.6128 34.6553C71.1587 33.158 69.6896 32.4629 68.2205 33.0778Z" fill="white"/>
<path d="M10.1503 45.1359C9.18875 45.4835 8.73466 46.3391 8.76137 47.7561C8.81479 49.4939 9.05519 50.4297 9.77639 51.713C10.738 53.3707 12.5276 54.7877 14.5844 55.5363C17.2555 56.4988 22.2505 56.4454 26.9784 55.4294C31.1721 54.5204 32.6412 53.8519 32.9617 52.6756C33.2822 51.4457 32.7213 50.2158 31.6261 49.7613C30.8248 49.4405 30.4509 49.4672 27.5928 50.2158C23.9066 51.1783 18.5911 51.5526 16.5877 50.9912C15.0652 50.5901 13.97 49.4939 13.7564 48.1571C13.4625 46.3391 13.0352 45.5904 12.127 45.2161C11.112 44.7883 11.0585 44.7883 10.1503 45.1359Z" fill="white"/>
<path d="M67.9533 45.2161C67.0985 45.5904 66.6712 46.3925 66.3773 48.0769C66.1636 49.4405 65.389 50.3228 63.9733 50.8842C62.1035 51.5794 56.6812 51.2853 52.5676 50.2158C50.0034 49.5741 49.2822 49.4672 48.6144 49.7078C47.7596 50.0019 47.0117 51.0981 47.0117 52.0606C47.0117 53.6915 48.2137 54.3332 53.1553 55.4294C57.8832 56.4454 62.8782 56.4988 65.5493 55.5363C67.6595 54.7877 69.3957 53.3707 70.4374 51.6061C70.9984 50.6436 71.1586 49.9217 71.2655 48.3443C71.3723 46.4727 71.3189 46.2588 70.758 45.7241C69.9032 44.9488 68.9416 44.7616 67.9533 45.2161Z" fill="white"/>
<path d="M38.4375 46.2856C37.8498 46.8738 36.7547 48.7453 34.0569 53.7985C30.9584 59.6002 28.6612 62.6482 26.1236 64.3593C22.1971 66.9794 18.8582 65.4822 16.1337 59.9211C14.9049 57.4079 14.344 56.8731 12.9283 56.8731C12.0468 56.8731 10.6846 58.2367 10.6846 59.119C10.6846 60.937 12.955 65.0277 15.2789 67.3538C17.5226 69.5996 19.0719 70.3215 22.0368 70.4552C24.1203 70.5354 24.6812 70.4819 26.2305 69.8937C30.531 68.2628 34.0301 64.3593 38.2238 56.5256C39.132 54.8144 39.96 53.3974 40.0669 53.3974C40.1737 53.3974 41.0018 54.8144 41.9099 56.5256C45.9433 64.0652 49.3357 67.9687 53.4492 69.7333C54.6512 70.268 55.3457 70.375 57.5627 70.375C59.9667 70.375 60.3941 70.2947 61.8098 69.5996C63.7063 68.6638 66.1637 66.2576 67.4726 64.0385C68.6211 62.06 69.7163 59.3863 69.7163 58.5575C69.7163 57.595 68.4074 56.3117 67.3924 56.2849C66.4308 56.2582 65.2288 56.9266 64.9884 57.6218C64.9083 57.8624 64.4809 58.8516 64.0535 59.8141C62.2639 63.7711 59.5928 65.9635 56.9751 65.5892C54.5978 65.2683 51.7664 62.9957 49.5761 59.6537C49.0151 58.7981 48.3206 57.7822 48.0802 57.4079C47.8398 57.0336 46.9851 55.5363 46.2104 54.0658C43.0852 48.2106 42.1236 46.5529 41.5894 46.1251C40.7079 45.43 39.2121 45.5102 38.4375 46.2856Z" fill="white"/>
<path d="M1.25543 66.5249C0.320534 67.0596 0 68.236 0 70.9899C0 74.4656 0.480801 76.0698 2.05676 77.7542C3.79299 79.6257 4.96828 80 9.13522 80C12.4474 80 12.5543 79.9733 13.2487 79.3049C14.2638 78.2621 14.2103 76.7916 13.1152 75.8024C12.3139 75.0805 12.1803 75.0538 9.24207 75.0538C6.25042 75.0538 6.17028 75.0271 5.63606 74.3586C5.15526 73.7437 5.07512 73.2625 5.07512 70.8562C5.07512 68.0756 4.86143 67.2201 4.03339 66.5784C3.52588 66.1773 1.89649 66.1506 1.25543 66.5249Z" fill="white"/>
<path d="M76.0734 66.5784C75.2988 67.1933 75.0584 68.2895 75.0584 71.0701C75.0584 73.5566 75.005 73.7972 74.3906 74.3854C73.7763 75.0271 73.5626 75.0538 70.8113 75.0538C67.9532 75.0538 67.8197 75.0805 67.0183 75.8024C65.9232 76.7916 65.8698 78.2621 66.8848 79.3049C67.5793 79.9733 67.6594 80 71.1319 80C75.1118 80 76.3138 79.6524 77.9699 77.968C79.626 76.3371 80 75.1073 80 71.2572C80 68.236 79.9466 67.8083 79.439 67.1131C78.985 66.5249 78.6377 66.3645 77.7028 66.311C77.035 66.2576 76.3405 66.3912 76.0734 66.5784Z" fill="white"/>
<path d="M21.5559 75.5351C20.2471 76.3371 20.1669 78.3691 21.4224 79.5187C21.9299 79.9733 22.8381 80 40.0935 80H58.2304L58.8982 79.3049C60.0735 78.1552 59.7529 76.0163 58.3105 75.3479C57.8564 75.134 52.4073 75.0538 39.9866 75.0538C23.7195 75.0805 22.2504 75.1073 21.5559 75.5351Z" fill="white"/>
</svg>
